PathFileType	4	(X/Y/Z)	./resultDataOpenSim/trcMotMarkerGrf/sub06/qtm-13-01.trc
DataRate	CameraRate	NumFrames	NumMarkers	Units	OrigDataRate	OrigDataStartFrame	OrigNumFrames
250.000000	250.000000	8	24	m	250.000000	70	553
Frame#	Time	L.Toe.Tip			R.Toe.Tip			L.Ankle.Lat			R.Ankle.Lat			L.Ankle.Med			R.Ankle.Med			L.Heel			R.Heel			L.Knee.Lat			R.Knee.Lat			L.Knee.Med			R.Knee.Med			L.Thigh.Upper			R.Thigh.Upper			L.ASIS			R.ASIS			V.Sacral			L.Acromium			R.Acromium			C7			L.Elbow			R.Elbow			L.Wrist.Lat			R.Wrist.Lat
		X1	Y1	Z1	X2	Y2	Z2	X3	Y3	Z3	X4	Y4	Z4	X5	Y5	Z5	X6	Y6	Z6	X7	Y7	Z7	X8	Y8	Z8	X9	Y9	Z9	X10	Y10	Z10	X11	Y11	Z11	X12	Y12	Z12	X13	Y13	Z13	X14	Y14	Z14	X15	Y15	Z15	X16	Y16	Z16	X17	Y17	Z17	X18	Y18	Z18	X19	Y19	Z19	X20	Y20	Z20	X21	Y21	Z21	X22	Y22	Z22	X23	Y23	Z23	X24	Y24	Z24

70	0.276	-1.3196463	0.083434025	-0.092599713	-0.81525114	0.0355932	0.086699132	-1.3283735	0.21505829	-0.10806727	-0.95144367	0.061727876	0.1076258	-1.3056562	0.2132892	-0.02723781	-0.93036442	0.078869426	0.021101862	-1.3764679	0.26458308	-0.05177832	-1.0054996	0.038390002	0.046293522	-0.99346739	0.38920052	-0.13881002	-0.8779562	0.44210468	0.13581419	-0.99334734	0.38169507	-0.014846913	-0.91881033	0.43212142	0.014102906	-1.0294397	0.78267375	-0.14001493	-0.99570055	0.80104249	0.2004775	-0.9508008	0.83497528	-0.10577001	-0.91668841	0.85512845	0.13581296	-1.1176334	0.91704316	0.03674331	-0.97931218	1.3352727	-0.15043139	-0.98324982	1.3042075	0.21045763	-1.0596985	1.3589128	0.029976678	-0.99385534	1.0162656	-0.23661578	-1.1017171	1.0117107	0.26242834	-0.79685754	0.87047911	-0.20010729	-1.0231387	0.78956451	0.31014179
71	0.28	-1.3033934	0.083305248	-0.092401174	-0.81528209	0.035594875	0.086717171	-1.3144221	0.21455624	-0.10747248	-0.95152882	0.061743902	0.10762047	-1.2916729	0.21306031	-0.0266845	-0.93038339	0.07891325	0.021092526	-1.3632797	0.26329431	-0.051171762	-1.0054983	0.038478373	0.046273435	-0.98131584	0.39125018	-0.13870858	-0.87623574	0.44201617	0.13587137	-0.9812307	0.38377555	-0.014291244	-0.91733034	0.43242238	0.014144528	-1.0230179	0.78471434	-0.14032769	-0.99101401	0.80183267	0.20074874	-0.94454155	0.83708045	-0.1052562	-0.91124285	0.85647771	0.13668028	-1.1114407	0.91922149	0.038101034	-0.97415813	1.3369171	-0.15031772	-0.97708514	1.3061325	0.21048302	-1.0539742	1.3604743	0.030205603	-0.99025798	1.0179663	-0.23587217	-1.0929578	1.012543	0.2635154	-0.79433505	0.87073918	-0.20050564	-1.010977	0.79134633	0.31020173
72	0.284	-1.2869887	0.083050007	-0.092170642	-0.81530594	0.035594899	0.086714569	-1.3002965	0.21385933	-0.10686068	-0.95158789	0.061766987	0.10760438	-1.2776392	0.21266046	-0.026114866	-0.93040481	0.078966789	0.021073527	-1.3500632	0.26171093	-0.050261365	-1.0054981	0.038567537	0.046250107	-0.9692158	0.39340004	-0.13856484	-0.8749588	0.44198208	0.13580356	-0.96866408	0.38600711	-0.013825643	-0.91589668	0.4327455	0.014149723	-1.0165865	0.78670518	-0.14031198	-0.98677946	0.80252908	0.20088805	-0.93827686	0.83918845	-0.10473872	-0.90583085	0.85782726	0.13753233	-1.1051951	0.92149286	0.039790688	-0.96899575	1.3385678	-0.15020295	-0.9709101	1.3080729	0.21049273	-1.0482505	1.3620206	0.030435007	-0.98673836	1.0196971	-0.23514545	-1.0839406	1.0133822	0.26472703	-0.79184578	0.87101247	-0.20092996	-0.99891273	0.79321348	0.3101848
73	0.288	-1.270537	0.082638152	-0.091778388	-0.81532784	0.035592352	0.086697964	-1.2860938	0.21294861	-0.10624086	-0.95161585	0.061803528	0.1075835	-1.2635963	0.21209666	-0.025510745	-0.93043077	0.079032884	0.021047129	-1.3368404	0.25990805	-0.049410465	-1.0055043	0.038658507	0.046230546	-0.95716742	0.39564053	-0.13837612	-0.8741784	0.44196381	0.13570992	-0.95597803	0.38834288	-0.01344826	-0.91452269	0.43308824	0.014101293	-1.0101024	0.78861841	-0.13968888	-0.9825469	0.80322536	0.20103988	-0.93208735	0.84123991	-0.10433729	-0.90037448	0.85917971	0.13837178	-1.098879	0.92345775	0.041100712	-0.96381921	1.3402188	-0.15008676	-0.96472327	1.31002	0.21048904	-1.0425365	1.3635403	0.030668067	-0.98327633	1.0214598	-0.23447654	-1.0745471	1.0142098	0.26609739	-0.78937738	0.87129054	-0.20138279	-0.98689239	0.79515557	0.31010752
74	0.292	-1.2539974	0.082041202	-0.09120127	-0.81534837	0.03558675	0.086674313	-1.2718798	0.21180731	-0.10562289	-0.95160103	0.061861449	0.10756259	-1.2495066	0.21137237	-0.02488816	-0.93045372	0.079115497	0.021021015	-1.323582	0.25788196	-0.048760164	-1.0055223	0.038743251	0.046221726	-0.94516078	0.39796194	-0.13815516	-0.87369616	0.44194173	0.13574684	-0.94340174	0.39076431	-0.013117081	-0.91333325	0.43343764	0.014004473	-1.003531	0.79050127	-0.13869304	-0.97763373	0.80402984	0.20140285	-0.92599569	0.84322553	-0.10408464	-0.89469688	0.86054077	0.13921205	-1.0925791	0.92492122	0.041615961	-0.95862843	1.341862	-0.14996768	-0.95852923	1.3119606	0.21046962	-1.0368351	1.3650341	0.030905707	-0.9798498	1.0232421	-0.2338324	-1.0649728	1.0150506	0.26753129	-0.78694091	0.87157099	-0.20186762	-0.97484382	0.79716859	0.30998508
75	0.296	-1.2371772	0.081277544	-0.090591392	-0.81536697	0.035578512	0.086648952	-1.2576137	0.21044617	-0.10500869	-0.95153108	0.061947859	0.10754666	-1.2352694	0.21048318	-0.024278089	-0.93046382	0.079219812	0.02100763	-1.3102471	0.25557836	-0.048226352	-1.0055567	0.038805677	0.046228034	-0.93319237	0.40035481	-0.13791466	-0.87331045	0.44194305	0.13598106	-0.93099804	0.39327532	-0.012795713	-0.91239277	0.43377265	0.013894652	-0.99686098	0.79242057	-0.13784231	-0.97190578	0.80494232	0.20200823	-0.9199446	0.84518355	-0.1038978	-0.88862721	0.86191426	0.14006805	-1.0864506	0.92607528	0.04154661	-0.95343221	1.3434867	-0.14984641	-0.95234114	1.3138895	0.21043174	-1.0311433	1.3665042	0.031145581	-0.9764495	1.0250306	-0.23317995	-1.0555955	1.0159467	0.268827	-0.78455237	0.87185319	-0.20238218	-0.9627344	0.79925449	0.30982169
76	0.3	-1.2199372	0.080394096	-0.090091429	-0.81538564	0.035570052	0.086624137	-1.243189	0.20889652	-0.10440714	-0.95141372	0.062057441	0.10753624	-1.2208316	0.20941323	-0.02369126	-0.9304597	0.079345429	0.021015667	-1.2968171	0.25296743	-0.047714303	-1.0056094	0.038837193	0.046247975	-0.92126682	0.40280365	-0.13765319	-0.87285469	0.44198364	0.13631082	-0.91879462	0.3958679	-0.012471084	-0.91152734	0.43409314	0.013802395	-0.99013265	0.79439217	-0.13739856	-0.96586717	0.80587917	0.20270403	-0.91386202	0.84715455	-0.10368311	-0.88225221	0.86328765	0.14093049	-1.0806011	0.92724184	0.041388502	-0.94823733	1.3450817	-0.14973027	-0.94616206	1.3158067	0.21038172	-1.0254607	1.3679489	0.031383511	-0.97307839	1.0268176	-0.23253321	-1.0465697	1.0168973	0.2698736	-0.78221831	0.87212888	-0.20292128	-0.95056604	0.80141403	0.30961729
77	0.304	-1.2022934	0.079426031	-0.089706465	-0.81540728	0.035564962	0.086599518	-1.2285754	0.20717087	-0.10382108	-0.95132432	0.062149851	0.10751756	-1.2061835	0.20815186	-0.023128829	-0.93045793	0.079477527	0.021039564	-1.2832846	0.2500553	-0.047175771	-1.0056767	0.038853247	0.046273661	-0.90939527	0.40528947	-0.13735858	-0.87216063	0.44204114	0.13657656	-0.90681861	0.39852729	-0.012139659	-0.91055778	0.43440182	0.013725266	-0.98342528	0.7963824	-0.13727741	-0.96000358	0.80677301	0.20332436	-0.90771693	0.84915384	-0.10340021	-0.8760155	0.86462864	0.14174714	-1.0749451	0.92852524	0.041425302	-0.94304053	1.3466383	-0.14962389	-0.93996538	1.3177061	0.21032785	-1.0197882	1.3693603	0.031613416	-0.96973814	1.028596	-0.23192351	-1.0377791	1.0178613	0.2706936	-0.77993722	0.87238066	-0.20348125	-0.9383506	0.80364531	0.30937734
